<mxfile host="app.diagrams.net" modified="2023-12-21T10:47:19.291Z" agent="Mozilla/5.0 (Windows NT 10.0; Win64; x64) AppleWebKit/537.36 (KHTML, like Gecko) Chrome/120.0.0.0 Safari/537.36" etag="ghq8uWf1n1ZCSfQv6n3J" version="22.1.11" type="device">
  <diagram name="Page-1" id="1We8LXtxVTbrfOdKRrKp">
    <mxGraphModel dx="3585" dy="1950" grid="1" gridSize="10" guides="1" tooltips="1" connect="1" arrows="1" fold="1" page="1" pageScale="1" pageWidth="850" pageHeight="1100" background="none" math="0" shadow="0">
      <root>
        <mxCell id="0" />
        <mxCell id="1" parent="0" />
        <mxCell id="9VNsDLRpWDY7XI8XTGZ6-4" style="edgeStyle=orthogonalEdgeStyle;rounded=0;orthogonalLoop=1;jettySize=auto;html=1;exitX=0.5;exitY=1;exitDx=0;exitDy=0;entryX=0.5;entryY=0;entryDx=0;entryDy=0;strokeColor=#000000;" parent="1" source="9VNsDLRpWDY7XI8XTGZ6-1" target="9VNsDLRpWDY7XI8XTGZ6-3" edge="1">
          <mxGeometry relative="1" as="geometry" />
        </mxCell>
        <mxCell id="9VNsDLRpWDY7XI8XTGZ6-1" value="" style="ellipse;whiteSpace=wrap;html=1;aspect=fixed;strokeColor=#FFFFFF;fillColor=#000000;" parent="1" vertex="1">
          <mxGeometry x="485" y="130" width="50" height="50" as="geometry" />
        </mxCell>
        <mxCell id="9VNsDLRpWDY7XI8XTGZ6-7" style="edgeStyle=orthogonalEdgeStyle;rounded=0;orthogonalLoop=1;jettySize=auto;html=1;exitX=0.5;exitY=1;exitDx=0;exitDy=0;entryX=0.5;entryY=0;entryDx=0;entryDy=0;strokeColor=#FFFFFF;" parent="1" source="9VNsDLRpWDY7XI8XTGZ6-3" target="9VNsDLRpWDY7XI8XTGZ6-5" edge="1">
          <mxGeometry relative="1" as="geometry" />
        </mxCell>
        <mxCell id="9VNsDLRpWDY7XI8XTGZ6-3" value="&lt;font style=&quot;font-size: 14px;&quot;&gt;Checkout&lt;/font&gt;" style="rounded=1;whiteSpace=wrap;html=1;fillColor=#FFFFFF;strokeColor=#000000;" parent="1" vertex="1">
          <mxGeometry x="450" y="210" width="120" height="60" as="geometry" />
        </mxCell>
        <mxCell id="9VNsDLRpWDY7XI8XTGZ6-9" style="edgeStyle=orthogonalEdgeStyle;rounded=0;orthogonalLoop=1;jettySize=auto;html=1;exitX=0.5;exitY=1;exitDx=0;exitDy=0;strokeColor=#030303;" parent="1" source="9VNsDLRpWDY7XI8XTGZ6-5" edge="1">
          <mxGeometry relative="1" as="geometry">
            <mxPoint x="510" y="390" as="targetPoint" />
            <Array as="points">
              <mxPoint x="510" y="380" />
              <mxPoint x="510" y="380" />
            </Array>
          </mxGeometry>
        </mxCell>
        <mxCell id="URFNs4tsNOO0qyosWPud-2" value="" style="edgeStyle=orthogonalEdgeStyle;rounded=0;orthogonalLoop=1;jettySize=auto;html=1;endArrow=none;endFill=0;startArrow=classic;startFill=1;" parent="1" source="9VNsDLRpWDY7XI8XTGZ6-5" target="9VNsDLRpWDY7XI8XTGZ6-3" edge="1">
          <mxGeometry relative="1" as="geometry" />
        </mxCell>
        <mxCell id="9VNsDLRpWDY7XI8XTGZ6-5" value="&lt;font style=&quot;font-size: 14px;&quot;&gt;Setup .NET&lt;br&gt;&lt;/font&gt;" style="rounded=1;whiteSpace=wrap;html=1;fillColor=#FFFFFF;strokeColor=#000000;" parent="1" vertex="1">
          <mxGeometry x="450" y="300" width="120" height="60" as="geometry" />
        </mxCell>
        <mxCell id="9VNsDLRpWDY7XI8XTGZ6-6" value="&lt;span style=&quot;font-size: 14px;&quot;&gt;On Publish&lt;/span&gt;" style="text;html=1;align=center;verticalAlign=middle;resizable=0;points=[];autosize=1;strokeColor=none;fillColor=none;" parent="1" vertex="1">
          <mxGeometry x="465" y="100" width="90" height="30" as="geometry" />
        </mxCell>
        <mxCell id="9VNsDLRpWDY7XI8XTGZ6-11" style="edgeStyle=orthogonalEdgeStyle;rounded=0;orthogonalLoop=1;jettySize=auto;html=1;exitX=0.5;exitY=1;exitDx=0;exitDy=0;entryX=0.5;entryY=0;entryDx=0;entryDy=0;strokeColor=#030303;" parent="1" source="9VNsDLRpWDY7XI8XTGZ6-8" target="9VNsDLRpWDY7XI8XTGZ6-10" edge="1">
          <mxGeometry relative="1" as="geometry" />
        </mxCell>
        <mxCell id="9VNsDLRpWDY7XI8XTGZ6-8" value="&lt;font style=&quot;font-size: 14px;&quot;&gt;Package MacOS Arm&lt;br&gt;&lt;/font&gt;" style="rounded=1;whiteSpace=wrap;html=1;fillColor=#FFFFFF;strokeColor=#000000;" parent="1" vertex="1">
          <mxGeometry x="450" y="570" width="120" height="60" as="geometry" />
        </mxCell>
        <mxCell id="9VNsDLRpWDY7XI8XTGZ6-15" style="edgeStyle=orthogonalEdgeStyle;rounded=0;orthogonalLoop=1;jettySize=auto;html=1;exitX=0.5;exitY=1;exitDx=0;exitDy=0;entryX=0.5;entryY=0;entryDx=0;entryDy=0;strokeColor=#030303;" parent="1" source="9VNsDLRpWDY7XI8XTGZ6-10" target="b5msubpQONi49HggXn7n-6" edge="1">
          <mxGeometry relative="1" as="geometry" />
        </mxCell>
        <mxCell id="9VNsDLRpWDY7XI8XTGZ6-10" value="&lt;font style=&quot;font-size: 14px;&quot;&gt;Package Windows&lt;/font&gt;" style="rounded=1;whiteSpace=wrap;html=1;fillColor=#FFFFFF;strokeColor=#000000;" parent="1" vertex="1">
          <mxGeometry x="450" y="660" width="120" height="60" as="geometry" />
        </mxCell>
        <mxCell id="9VNsDLRpWDY7XI8XTGZ6-16" value="&lt;font style=&quot;font-size: 14px;&quot;&gt;Project now released&lt;/font&gt;" style="text;html=1;align=center;verticalAlign=middle;resizable=0;points=[];autosize=1;strokeColor=none;fillColor=none;" parent="1" vertex="1">
          <mxGeometry x="430" y="889" width="160" height="30" as="geometry" />
        </mxCell>
        <mxCell id="URFNs4tsNOO0qyosWPud-1" value="&lt;b&gt;&lt;font style=&quot;font-size: 16px;&quot;&gt;Release Workflow&lt;/font&gt;&lt;/b&gt;" style="text;html=1;align=center;verticalAlign=middle;resizable=0;points=[];autosize=1;strokeColor=none;fillColor=none;" parent="1" vertex="1">
          <mxGeometry x="430" y="60" width="160" height="30" as="geometry" />
        </mxCell>
        <mxCell id="9VNsDLRpWDY7XI8XTGZ6-17" style="edgeStyle=orthogonalEdgeStyle;rounded=0;orthogonalLoop=1;jettySize=auto;html=1;exitX=0.5;exitY=1;exitDx=0;exitDy=0;entryX=0.5;entryY=0;entryDx=0;entryDy=0;" parent="1" source="9VNsDLRpWDY7XI8XTGZ6-18" target="9VNsDLRpWDY7XI8XTGZ6-22" edge="1">
          <mxGeometry relative="1" as="geometry" />
        </mxCell>
        <mxCell id="9VNsDLRpWDY7XI8XTGZ6-18" value="" style="ellipse;whiteSpace=wrap;html=1;aspect=fixed;fillColor=#030303;strokeColor=#FFFFFF;" parent="1" vertex="1">
          <mxGeometry x="661" y="130" width="50" height="50" as="geometry" />
        </mxCell>
        <mxCell id="9VNsDLRpWDY7XI8XTGZ6-19" value="&lt;font style=&quot;font-size: 16px;&quot;&gt;&lt;b&gt;Deploy Workflow&lt;/b&gt;&lt;/font&gt;" style="text;html=1;align=center;verticalAlign=middle;resizable=0;points=[];autosize=1;strokeColor=none;fillColor=none;" parent="1" vertex="1">
          <mxGeometry x="612" y="59" width="148" height="31" as="geometry" />
        </mxCell>
        <mxCell id="9VNsDLRpWDY7XI8XTGZ6-20" value="&lt;font style=&quot;font-size: 14px;&quot;&gt;On push to main&lt;/font&gt;" style="text;html=1;align=center;verticalAlign=middle;resizable=0;points=[];autosize=1;strokeColor=none;fillColor=none;" parent="1" vertex="1">
          <mxGeometry x="621" y="100" width="130" height="30" as="geometry" />
        </mxCell>
        <mxCell id="9VNsDLRpWDY7XI8XTGZ6-21" style="edgeStyle=orthogonalEdgeStyle;rounded=0;orthogonalLoop=1;jettySize=auto;html=1;exitX=0.5;exitY=1;exitDx=0;exitDy=0;entryX=0.5;entryY=0;entryDx=0;entryDy=0;" parent="1" source="9VNsDLRpWDY7XI8XTGZ6-22" target="9VNsDLRpWDY7XI8XTGZ6-24" edge="1">
          <mxGeometry relative="1" as="geometry" />
        </mxCell>
        <mxCell id="9VNsDLRpWDY7XI8XTGZ6-22" value="&lt;font style=&quot;font-size: 14px;&quot;&gt;Checkout&lt;/font&gt;" style="rounded=1;whiteSpace=wrap;html=1;fillColor=#FFFFFF;strokeColor=#000000;fontColor=#000000;" parent="1" vertex="1">
          <mxGeometry x="626" y="210" width="120" height="60" as="geometry" />
        </mxCell>
        <mxCell id="b5msubpQONi49HggXn7n-17" style="edgeStyle=orthogonalEdgeStyle;rounded=0;orthogonalLoop=1;jettySize=auto;html=1;exitX=0.5;exitY=1;exitDx=0;exitDy=0;entryX=0.5;entryY=0;entryDx=0;entryDy=0;" parent="1" source="9VNsDLRpWDY7XI8XTGZ6-24" target="9VNsDLRpWDY7XI8XTGZ6-26" edge="1">
          <mxGeometry relative="1" as="geometry" />
        </mxCell>
        <mxCell id="9VNsDLRpWDY7XI8XTGZ6-24" value="&lt;font style=&quot;font-size: 14px;&quot;&gt;Setup .NET Core&lt;br&gt;&lt;/font&gt;" style="rounded=1;whiteSpace=wrap;html=1;fillColor=#FFFFFF;strokeColor=#000000;fontColor=#000000;" parent="1" vertex="1">
          <mxGeometry x="626" y="300" width="120" height="60" as="geometry" />
        </mxCell>
        <mxCell id="b5msubpQONi49HggXn7n-16" style="edgeStyle=orthogonalEdgeStyle;rounded=0;orthogonalLoop=1;jettySize=auto;html=1;exitX=0.5;exitY=1;exitDx=0;exitDy=0;" parent="1" source="9VNsDLRpWDY7XI8XTGZ6-26" target="b5msubpQONi49HggXn7n-8" edge="1">
          <mxGeometry relative="1" as="geometry" />
        </mxCell>
        <mxCell id="9VNsDLRpWDY7XI8XTGZ6-26" value="&lt;font color=&quot;#000000&quot; style=&quot;font-size: 14px;&quot;&gt;Build&lt;br&gt;&lt;/font&gt;" style="rounded=1;whiteSpace=wrap;html=1;fillColor=#FFFFFF;strokeColor=#000000;fontColor=#FFFFFF;" parent="1" vertex="1">
          <mxGeometry x="625.5" y="390" width="120" height="60" as="geometry" />
        </mxCell>
        <mxCell id="9VNsDLRpWDY7XI8XTGZ6-28" value="&lt;font color=&quot;#030303&quot; style=&quot;font-size: 14px;&quot;&gt;Project now deployed&lt;br&gt;&lt;/font&gt;" style="text;html=1;align=center;verticalAlign=middle;resizable=0;points=[];autosize=1;strokeColor=none;fillColor=none;fontColor=#FFFFFF;" parent="1" vertex="1">
          <mxGeometry x="612" y="890" width="153" height="29" as="geometry" />
        </mxCell>
        <mxCell id="9VNsDLRpWDY7XI8XTGZ6-29" value="" style="ellipse;whiteSpace=wrap;html=1;aspect=fixed;fontSize=16;fillColor=#000000;strokeColor=#F7F7F7;" parent="1" vertex="1">
          <mxGeometry x="296" y="130" width="50" height="50" as="geometry" />
        </mxCell>
        <mxCell id="9VNsDLRpWDY7XI8XTGZ6-30" style="edgeStyle=none;curved=1;rounded=0;orthogonalLoop=1;jettySize=auto;html=1;exitX=0.5;exitY=1;exitDx=0;exitDy=0;entryX=0.5;entryY=0;entryDx=0;entryDy=0;fontSize=12;startSize=8;endSize=8;strokeColor=#000000;" parent="1" source="9VNsDLRpWDY7XI8XTGZ6-31" target="9VNsDLRpWDY7XI8XTGZ6-33" edge="1">
          <mxGeometry relative="1" as="geometry" />
        </mxCell>
        <mxCell id="9VNsDLRpWDY7XI8XTGZ6-31" value="" style="ellipse;whiteSpace=wrap;html=1;aspect=fixed;fontSize=16;fillColor=#000000;strokeColor=#FFFFFF;" parent="1" vertex="1">
          <mxGeometry x="296" y="130" width="50" height="50" as="geometry" />
        </mxCell>
        <mxCell id="9VNsDLRpWDY7XI8XTGZ6-32" style="edgeStyle=orthogonalEdgeStyle;rounded=0;orthogonalLoop=1;jettySize=auto;html=1;exitX=0.5;exitY=1;exitDx=0;exitDy=0;entryX=0.5;entryY=0;entryDx=0;entryDy=0;strokeColor=#000000;" parent="1" source="9VNsDLRpWDY7XI8XTGZ6-33" target="9VNsDLRpWDY7XI8XTGZ6-37" edge="1">
          <mxGeometry relative="1" as="geometry" />
        </mxCell>
        <mxCell id="9VNsDLRpWDY7XI8XTGZ6-33" value="&lt;font style=&quot;font-size: 14px;&quot;&gt;Checkout&lt;/font&gt;&lt;font style=&quot;font-size: 14px;&quot;&gt;&lt;br&gt;&lt;/font&gt;" style="rounded=1;whiteSpace=wrap;html=1;fontSize=16;strokeColor=#000000;fillColor=#FFFFFF;" parent="1" vertex="1">
          <mxGeometry x="261" y="210" width="120" height="60" as="geometry" />
        </mxCell>
        <mxCell id="9VNsDLRpWDY7XI8XTGZ6-34" value="&lt;div&gt;&lt;font color=&quot;#000000&quot;&gt;&lt;b&gt;Build and Test Workflow&lt;/b&gt;&lt;/font&gt;&lt;/div&gt;" style="text;html=1;align=center;verticalAlign=middle;resizable=0;points=[];autosize=1;strokeColor=none;fillColor=none;fontSize=16;fontColor=#FAFAFA;fontStyle=0" parent="1" vertex="1">
          <mxGeometry x="210" y="58" width="203" height="31" as="geometry" />
        </mxCell>
        <mxCell id="9VNsDLRpWDY7XI8XTGZ6-35" value="&lt;font color=&quot;#000000&quot; style=&quot;font-size: 14px;&quot;&gt;On push or merge to main&lt;br&gt;&lt;/font&gt;" style="text;html=1;align=center;verticalAlign=middle;resizable=0;points=[];autosize=1;strokeColor=none;fillColor=none;fontSize=16;fontColor=#EDEDED;" parent="1" vertex="1">
          <mxGeometry x="226" y="100" width="190" height="30" as="geometry" />
        </mxCell>
        <mxCell id="9VNsDLRpWDY7XI8XTGZ6-36" style="edgeStyle=orthogonalEdgeStyle;rounded=0;orthogonalLoop=1;jettySize=auto;html=1;exitX=0.5;exitY=1;exitDx=0;exitDy=0;entryX=0.5;entryY=0;entryDx=0;entryDy=0;strokeColor=#000000;" parent="1" source="9VNsDLRpWDY7XI8XTGZ6-37" target="9VNsDLRpWDY7XI8XTGZ6-39" edge="1">
          <mxGeometry relative="1" as="geometry" />
        </mxCell>
        <mxCell id="9VNsDLRpWDY7XI8XTGZ6-37" value="&lt;span style=&quot;font-size: 14px;&quot;&gt;Set timezone to Copenhagen time&lt;/span&gt;" style="rounded=1;whiteSpace=wrap;html=1;strokeColor=#000000;fillColor=#FFFFFF;" parent="1" vertex="1">
          <mxGeometry x="261" y="300" width="120" height="60" as="geometry" />
        </mxCell>
        <mxCell id="9VNsDLRpWDY7XI8XTGZ6-38" style="edgeStyle=orthogonalEdgeStyle;rounded=0;orthogonalLoop=1;jettySize=auto;html=1;exitX=0.5;exitY=1;exitDx=0;exitDy=0;entryX=0.5;entryY=0;entryDx=0;entryDy=0;strokeColor=#000000;" parent="1" source="9VNsDLRpWDY7XI8XTGZ6-39" target="9VNsDLRpWDY7XI8XTGZ6-41" edge="1">
          <mxGeometry relative="1" as="geometry" />
        </mxCell>
        <mxCell id="9VNsDLRpWDY7XI8XTGZ6-39" value="&lt;span style=&quot;font-size: 14px;&quot;&gt;Setup .NET&lt;/span&gt;" style="rounded=1;whiteSpace=wrap;html=1;strokeColor=#000000;fillColor=#FFFFFF;" parent="1" vertex="1">
          <mxGeometry x="261" y="390" width="120" height="60" as="geometry" />
        </mxCell>
        <mxCell id="9VNsDLRpWDY7XI8XTGZ6-40" style="edgeStyle=orthogonalEdgeStyle;rounded=0;orthogonalLoop=1;jettySize=auto;html=1;exitX=0.5;exitY=1;exitDx=0;exitDy=0;entryX=0.5;entryY=0;entryDx=0;entryDy=0;strokeColor=#000000;" parent="1" source="9VNsDLRpWDY7XI8XTGZ6-41" target="9VNsDLRpWDY7XI8XTGZ6-43" edge="1">
          <mxGeometry relative="1" as="geometry" />
        </mxCell>
        <mxCell id="9VNsDLRpWDY7XI8XTGZ6-41" value="&lt;font style=&quot;font-size: 14px;&quot;&gt;Restore dependencies&lt;/font&gt;&lt;font style=&quot;font-size: 14px;&quot;&gt;&lt;br&gt;&lt;/font&gt;" style="rounded=1;whiteSpace=wrap;html=1;fillColor=#FFFFFF;strokeColor=#000000;" parent="1" vertex="1">
          <mxGeometry x="261" y="480" width="120" height="60" as="geometry" />
        </mxCell>
        <mxCell id="9VNsDLRpWDY7XI8XTGZ6-42" style="edgeStyle=orthogonalEdgeStyle;rounded=0;orthogonalLoop=1;jettySize=auto;html=1;exitX=0.5;exitY=1;exitDx=0;exitDy=0;entryX=0.5;entryY=0;entryDx=0;entryDy=0;strokeColor=#000000;" parent="1" source="9VNsDLRpWDY7XI8XTGZ6-43" target="9VNsDLRpWDY7XI8XTGZ6-45" edge="1">
          <mxGeometry relative="1" as="geometry" />
        </mxCell>
        <mxCell id="9VNsDLRpWDY7XI8XTGZ6-43" value="&lt;font style=&quot;font-size: 14px;&quot;&gt;Build&lt;/font&gt;" style="rounded=1;whiteSpace=wrap;html=1;strokeColor=#000000;fillColor=#FFFFFF;" parent="1" vertex="1">
          <mxGeometry x="261" y="570" width="120" height="60" as="geometry" />
        </mxCell>
        <mxCell id="9VNsDLRpWDY7XI8XTGZ6-44" style="edgeStyle=orthogonalEdgeStyle;rounded=0;orthogonalLoop=1;jettySize=auto;html=1;exitX=0.5;exitY=1;exitDx=0;exitDy=0;entryX=0.5;entryY=0;entryDx=0;entryDy=0;strokeColor=#000000;" parent="1" source="9VNsDLRpWDY7XI8XTGZ6-45" edge="1">
          <mxGeometry relative="1" as="geometry">
            <mxPoint x="321" y="770" as="targetPoint" />
          </mxGeometry>
        </mxCell>
        <mxCell id="9VNsDLRpWDY7XI8XTGZ6-45" value="&lt;span style=&quot;font-size: 14px;&quot;&gt;Test&lt;/span&gt;" style="rounded=1;whiteSpace=wrap;html=1;strokeColor=#000000;fillColor=#FFFFFF;" parent="1" vertex="1">
          <mxGeometry x="261" y="660" width="120" height="60" as="geometry" />
        </mxCell>
        <mxCell id="9VNsDLRpWDY7XI8XTGZ6-47" value="&lt;font style=&quot;font-size: 14px;&quot;&gt;Project now built and tested&lt;/font&gt;" style="text;html=1;align=center;verticalAlign=middle;resizable=0;points=[];autosize=1;strokeColor=none;fillColor=none;" parent="1" vertex="1">
          <mxGeometry x="225" y="820" width="192" height="29" as="geometry" />
        </mxCell>
        <mxCell id="b5msubpQONi49HggXn7n-4" style="edgeStyle=none;curved=1;rounded=0;orthogonalLoop=1;jettySize=auto;html=1;exitX=0.5;exitY=1;exitDx=0;exitDy=0;entryX=0.5;entryY=0;entryDx=0;entryDy=0;fontSize=12;startSize=8;endSize=8;" parent="1" source="b5msubpQONi49HggXn7n-1" target="b5msubpQONi49HggXn7n-2" edge="1">
          <mxGeometry relative="1" as="geometry" />
        </mxCell>
        <mxCell id="b5msubpQONi49HggXn7n-1" value="&lt;font style=&quot;font-size: 14px;&quot;&gt;Package Linux&lt;br&gt;&lt;/font&gt;" style="rounded=1;whiteSpace=wrap;html=1;fillColor=#FFFFFF;strokeColor=#000000;" parent="1" vertex="1">
          <mxGeometry x="450" y="390" width="120" height="60" as="geometry" />
        </mxCell>
        <mxCell id="b5msubpQONi49HggXn7n-5" style="edgeStyle=none;curved=1;rounded=0;orthogonalLoop=1;jettySize=auto;html=1;exitX=0.5;exitY=1;exitDx=0;exitDy=0;entryX=0.5;entryY=0;entryDx=0;entryDy=0;fontSize=12;startSize=8;endSize=8;" parent="1" source="b5msubpQONi49HggXn7n-2" target="9VNsDLRpWDY7XI8XTGZ6-8" edge="1">
          <mxGeometry relative="1" as="geometry" />
        </mxCell>
        <mxCell id="b5msubpQONi49HggXn7n-2" value="&lt;font style=&quot;font-size: 14px;&quot;&gt;Package MacOS&lt;br&gt;&lt;/font&gt;" style="rounded=1;whiteSpace=wrap;html=1;fillColor=#FFFFFF;strokeColor=#000000;" parent="1" vertex="1">
          <mxGeometry x="450" y="480" width="120" height="60" as="geometry" />
        </mxCell>
        <mxCell id="b5msubpQONi49HggXn7n-7" style="edgeStyle=none;curved=1;rounded=0;orthogonalLoop=1;jettySize=auto;html=1;exitX=0.5;exitY=1;exitDx=0;exitDy=0;entryX=0.5;entryY=0;entryDx=0;entryDy=0;fontSize=12;startSize=8;endSize=8;" parent="1" source="b5msubpQONi49HggXn7n-6" edge="1">
          <mxGeometry relative="1" as="geometry">
            <mxPoint x="510" y="839" as="targetPoint" />
          </mxGeometry>
        </mxCell>
        <mxCell id="b5msubpQONi49HggXn7n-6" value="&lt;span style=&quot;font-size: 14px;&quot;&gt;Release packages on GitHub&lt;/span&gt;" style="rounded=1;whiteSpace=wrap;html=1;fillColor=#FFFFFF;strokeColor=#000000;" parent="1" vertex="1">
          <mxGeometry x="450" y="750" width="120" height="60" as="geometry" />
        </mxCell>
        <mxCell id="b5msubpQONi49HggXn7n-15" style="edgeStyle=orthogonalEdgeStyle;rounded=0;orthogonalLoop=1;jettySize=auto;html=1;exitX=0.5;exitY=1;exitDx=0;exitDy=0;entryX=0.5;entryY=0;entryDx=0;entryDy=0;" parent="1" source="b5msubpQONi49HggXn7n-8" target="b5msubpQONi49HggXn7n-9" edge="1">
          <mxGeometry relative="1" as="geometry" />
        </mxCell>
        <mxCell id="b5msubpQONi49HggXn7n-8" value="&lt;font style=&quot;font-size: 14px;&quot; color=&quot;#000000&quot;&gt;Package application&lt;/font&gt;" style="rounded=1;whiteSpace=wrap;html=1;fillColor=#FFFFFF;strokeColor=#000000;fontColor=#FFFFFF;" parent="1" vertex="1">
          <mxGeometry x="625.5" y="480" width="120" height="60" as="geometry" />
        </mxCell>
        <mxCell id="b5msubpQONi49HggXn7n-14" style="edgeStyle=orthogonalEdgeStyle;rounded=0;orthogonalLoop=1;jettySize=auto;html=1;exitX=0.5;exitY=1;exitDx=0;exitDy=0;entryX=0.5;entryY=0;entryDx=0;entryDy=0;" parent="1" source="b5msubpQONi49HggXn7n-9" target="b5msubpQONi49HggXn7n-10" edge="1">
          <mxGeometry relative="1" as="geometry" />
        </mxCell>
        <mxCell id="b5msubpQONi49HggXn7n-9" value="&lt;font color=&quot;#000000&quot; style=&quot;font-size: 14px;&quot;&gt;Upload artifacts&lt;br&gt;&lt;/font&gt;" style="rounded=1;whiteSpace=wrap;html=1;fillColor=#FFFFFF;strokeColor=#000000;fontColor=#FFFFFF;" parent="1" vertex="1">
          <mxGeometry x="625.5" y="570" width="120" height="60" as="geometry" />
        </mxCell>
        <mxCell id="b5msubpQONi49HggXn7n-13" style="edgeStyle=orthogonalEdgeStyle;rounded=0;orthogonalLoop=1;jettySize=auto;html=1;exitX=0.5;exitY=1;exitDx=0;exitDy=0;entryX=0.5;entryY=0;entryDx=0;entryDy=0;" parent="1" source="b5msubpQONi49HggXn7n-10" target="b5msubpQONi49HggXn7n-11" edge="1">
          <mxGeometry relative="1" as="geometry" />
        </mxCell>
        <mxCell id="b5msubpQONi49HggXn7n-10" value="&lt;font color=&quot;#000000&quot; style=&quot;font-size: 14px;&quot;&gt;Download artifacts&amp;nbsp;&lt;br&gt;&lt;/font&gt;" style="rounded=1;whiteSpace=wrap;html=1;fillColor=#FFFFFF;strokeColor=#000000;fontColor=#FFFFFF;" parent="1" vertex="1">
          <mxGeometry x="626" y="660" width="120" height="60" as="geometry" />
        </mxCell>
        <mxCell id="b5msubpQONi49HggXn7n-12" style="edgeStyle=orthogonalEdgeStyle;rounded=0;orthogonalLoop=1;jettySize=auto;html=1;exitX=0.5;exitY=1;exitDx=0;exitDy=0;entryX=0.5;entryY=0;entryDx=0;entryDy=0;" parent="1" source="b5msubpQONi49HggXn7n-11" target="KaK2cn12pbw8GmOEs1QB-1" edge="1">
          <mxGeometry relative="1" as="geometry" />
        </mxCell>
        <mxCell id="b5msubpQONi49HggXn7n-11" value="&lt;font color=&quot;#000000&quot; style=&quot;font-size: 14px;&quot;&gt;Deploy to Azure&lt;br&gt;&lt;/font&gt;" style="rounded=1;whiteSpace=wrap;html=1;fillColor=#FFFFFF;strokeColor=#000000;fontColor=#FFFFFF;" parent="1" vertex="1">
          <mxGeometry x="626" y="750" width="120" height="60" as="geometry" />
        </mxCell>
        <mxCell id="KaK2cn12pbw8GmOEs1QB-1" value="" style="ellipse;whiteSpace=wrap;html=1;aspect=fixed;" vertex="1" parent="1">
          <mxGeometry x="660" y="839" width="51" height="51" as="geometry" />
        </mxCell>
        <mxCell id="9VNsDLRpWDY7XI8XTGZ6-27" value="" style="ellipse;whiteSpace=wrap;html=1;aspect=fixed;strokeColor=#FFFFFF;fillColor=#000000;" parent="1" vertex="1">
          <mxGeometry x="670" y="849" width="31" height="31" as="geometry" />
        </mxCell>
        <mxCell id="KaK2cn12pbw8GmOEs1QB-2" value="" style="ellipse;whiteSpace=wrap;html=1;aspect=fixed;" vertex="1" parent="1">
          <mxGeometry x="485" y="839" width="51" height="51" as="geometry" />
        </mxCell>
        <mxCell id="KaK2cn12pbw8GmOEs1QB-3" value="" style="ellipse;whiteSpace=wrap;html=1;aspect=fixed;strokeColor=#FFFFFF;fillColor=#000000;" vertex="1" parent="1">
          <mxGeometry x="495" y="849" width="31" height="31" as="geometry" />
        </mxCell>
        <mxCell id="KaK2cn12pbw8GmOEs1QB-6" value="" style="ellipse;whiteSpace=wrap;html=1;aspect=fixed;" vertex="1" parent="1">
          <mxGeometry x="296" y="769" width="51" height="51" as="geometry" />
        </mxCell>
        <mxCell id="KaK2cn12pbw8GmOEs1QB-7" value="" style="ellipse;whiteSpace=wrap;html=1;aspect=fixed;strokeColor=#FFFFFF;fillColor=#000000;" vertex="1" parent="1">
          <mxGeometry x="306" y="779" width="31" height="31" as="geometry" />
        </mxCell>
      </root>
    </mxGraphModel>
  </diagram>
</mxfile>
